<?xml version="1.0" encoding="UTF-8"?>
<svg xmlns="http://www.w3.org/2000/svg" id="uuid-af8845d0-182b-438b-9178-ed52ffe7096d" data-name="Layer_1" viewBox="0 0 512 512">
  <defs>
    <style>
      .uuid-3284d75f-3e52-4924-b32e-fe997dfd35e3 {
        fill: #aba897;
      }

      .uuid-5631f327-2b25-40a8-a807-9809f87849d2 {
        fill: #231f20;
      }

      .uuid-631da525-2bea-4167-8169-ec2ce971c92d {
        fill: #00aeef;
      }

      .uuid-d52f4f20-b613-4ec9-b7f8-1fa8cacb0c1a {
        fill: #fff;
      }

      .uuid-7c7b5613-8e4e-4207-8614-67ee2fcbade3 {
        opacity: .3;
      }

      .uuid-5bdf7ac3-0ce1-45fd-bff9-981061163371 {
        fill: #a7a9ac;
      }
    </style>
  </defs>
  <circle class="uuid-631da525-2bea-4167-8169-ec2ce971c92d" cx="256" cy="256" r="256"></circle>
  <path class="uuid-d52f4f20-b613-4ec9-b7f8-1fa8cacb0c1a" d="M344.72,103.88c-17.32-5.25-25.23,6.44-25.23,6.44,0,0-4.3-36.51-26.85-41.88-27.87-6.64-36.38,6.2-36.38,6.2,0,0-8.51-12.83-36.38-6.2-22.55,5.37-26.84,41.88-26.84,41.88,0,0-7.91-11.69-25.23-6.44-17.5,5.31-23.37,48.36-24.7,70.87-1.14,19.38-3.78,221.04-4.87,308.38,35.36,18.44,75.55,28.87,118.18,28.87s86.58-11.43,123.11-31.5c-2.76-88.67-8.97-286.56-10.1-305.75-1.33-22.51-7.2-65.56-24.7-70.87Z"></path>
  <path class="uuid-5631f327-2b25-40a8-a807-9809f87849d2" d="M259.83,159.13c-35.86,0-68.88,27.36-50.01,46.24,18.87,18.87,30,2.02,50.95,2.02,19.82,0,30.2,12.14,47.18.81,16.99-11.32-7.55-49.07-48.12-49.07Z"></path>
  <path class="uuid-5631f327-2b25-40a8-a807-9809f87849d2" d="M169.14,115.77c-10.08.77-12.62,10.08-11.36,19.53,1.26,9.45,7.57,15.75,14.51,15.12,6.94-.63,12.62-9.45,11.99-19.53-.63-10.08-6.94-15.75-15.14-15.12Z"></path>
  <path class="uuid-5631f327-2b25-40a8-a807-9809f87849d2" d="M227.38,117.87c6.94-.63,12.62-9.45,11.99-19.53-.63-10.08-6.94-15.75-15.14-15.12-10.08.77-12.62,10.08-11.36,19.53,1.26,9.45,7.57,15.75,14.51,15.12Z"></path>
  <path class="uuid-5631f327-2b25-40a8-a807-9809f87849d2" d="M288.34,117.87c6.94-.63,12.62-9.45,11.99-19.53-.63-10.08-6.94-15.75-15.14-15.12-10.08.77-12.62,10.08-11.36,19.53,1.26,9.45,7.57,15.75,14.51,15.12Z"></path>
  <path class="uuid-5631f327-2b25-40a8-a807-9809f87849d2" d="M352.48,130.89c-.63-10.08-6.94-15.75-15.14-15.12-10.08.77-12.62,10.08-11.36,19.53s7.57,15.75,14.51,15.12c6.94-.63,12.62-9.45,11.99-19.53Z"></path>
  <g>
    <g class="uuid-7c7b5613-8e4e-4207-8614-67ee2fcbade3">
      <path class="uuid-3284d75f-3e52-4924-b32e-fe997dfd35e3" d="M359.14,235.17c.47,6.68.93,13.35,1.54,20.02.47,5.12.57,11,2.49,15.84,1.06,2.67-1.14,5.79-3.68,6.49-3,.83-5.43-1.01-6.48-3.68-2.15-5.41-2.23-12.01-2.78-17.73-.67-6.97-1.13-13.95-1.63-20.93-.48-6.79,10.07-6.74,10.54,0h0Z"></path>
    </g>
    <g class="uuid-7c7b5613-8e4e-4207-8614-67ee2fcbade3">
      <path class="uuid-3284d75f-3e52-4924-b32e-fe997dfd35e3" d="M337.35,263.99c-.86,6.45-1.74,12.9-2.41,19.37-.5,4.84-1.31,12.13-.59,15.78,1.31,6.64-8.85,9.47-10.17,2.8-1.14-5.76-.44-11.82.11-17.61.65-6.8,1.6-13.58,2.51-20.35.38-2.85,2.11-5.27,5.27-5.27,2.58,0,5.65,2.42,5.27,5.27h0Z"></path>
    </g>
    <g class="uuid-7c7b5613-8e4e-4207-8614-67ee2fcbade3">
      <path class="uuid-3284d75f-3e52-4924-b32e-fe997dfd35e3" d="M301.31,247.12c-.98,4.23-2.43,8.36-3.76,12.48-.71,2.19-1.41,4.39-2.06,6.6-.27.9-.51,1.81-.74,2.72-.09.37-.18.75-.25,1.13-.34,1.57.02-.93-.03.27-.29,6.77-10.83,6.8-10.54,0,.17-4.01,1.69-8,2.9-11.78,1.5-4.71,3.2-9.4,4.32-14.22,1.54-6.62,11.71-3.81,10.17,2.8h0Z"></path>
    </g>
    <g class="uuid-7c7b5613-8e4e-4207-8614-67ee2fcbade3">
      <path class="uuid-3284d75f-3e52-4924-b32e-fe997dfd35e3" d="M241.75,237.28c.61,14.56-1.34,29.04-1.41,43.58-.03,6.8-10.57,6.8-10.54,0,.06-14.55,2.01-29.03,1.41-43.58-.28-6.8,10.26-6.77,10.54,0h0Z"></path>
    </g>
    <g class="uuid-7c7b5613-8e4e-4207-8614-67ee2fcbade3">
      <path class="uuid-3284d75f-3e52-4924-b32e-fe997dfd35e3" d="M264.94,297.03c-.71,10.07.02,20.32-2.3,30.22-1.55,6.62-11.71,3.81-10.17-2.8,2.09-8.94,1.28-18.32,1.92-27.42.47-6.74,11.02-6.79,10.54,0h0Z"></path>
    </g>
    <g class="uuid-7c7b5613-8e4e-4207-8614-67ee2fcbade3">
      <path class="uuid-3284d75f-3e52-4924-b32e-fe997dfd35e3" d="M214.31,310.24c-2.71,6.37-3.32,13.71-2.79,20.54.53,6.78-10.02,6.73-10.54,0-.68-8.83.78-17.72,4.23-25.86,1.12-2.65,4.97-3.2,7.21-1.89,2.71,1.59,3.02,4.57,1.89,7.21h0Z"></path>
    </g>
    <g class="uuid-7c7b5613-8e4e-4207-8614-67ee2fcbade3">
      <path class="uuid-3284d75f-3e52-4924-b32e-fe997dfd35e3" d="M197.27,240.09c-1.59,8.99-8,16.76-8.25,26.01-.18,6.79-10.73,6.8-10.54,0,.28-10.47,6.84-18.76,8.62-28.82,1.19-6.69,11.35-3.84,10.17,2.8h0Z"></path>
    </g>
    <g class="uuid-7c7b5613-8e4e-4207-8614-67ee2fcbade3">
      <path class="uuid-3284d75f-3e52-4924-b32e-fe997dfd35e3" d="M168.45,323.04c-3.6,12.63-4.26,25.85-7.03,38.66-1.44,6.64-11.6,3.83-10.17-2.8,2.77-12.81,3.43-26.03,7.03-38.66,1.86-6.53,12.04-3.75,10.17,2.8h0Z"></path>
    </g>
    <g class="uuid-7c7b5613-8e4e-4207-8614-67ee2fcbade3">
      <path class="uuid-3284d75f-3e52-4924-b32e-fe997dfd35e3" d="M216.44,377.17c-.75,10.07-2.05,20.11-2.11,30.23-.04,6.8-10.59,6.8-10.54,0,.06-10.11,1.36-20.15,2.11-30.23.5-6.74,11.05-6.79,10.54,0h0Z"></path>
    </g>
    <g class="uuid-7c7b5613-8e4e-4207-8614-67ee2fcbade3">
      <path class="uuid-3284d75f-3e52-4924-b32e-fe997dfd35e3" d="M305.71,317.42c.69,8.9,1.37,17.79,1.41,26.71.03,6.8-10.52,6.8-10.54,0-.03-8.93-.72-17.82-1.41-26.71-.52-6.78,10.02-6.73,10.54,0h0Z"></path>
    </g>
    <g class="uuid-7c7b5613-8e4e-4207-8614-67ee2fcbade3">
      <path class="uuid-3284d75f-3e52-4924-b32e-fe997dfd35e3" d="M366.68,304.07c1.53,9.27,4.8,18.14,6.33,27.41,1.09,6.65-9.07,9.5-10.17,2.8-1.53-9.27-4.8-18.14-6.33-27.41-1.09-6.65,9.07-9.5,10.17-2.8h0Z"></path>
    </g>
    <g class="uuid-7c7b5613-8e4e-4207-8614-67ee2fcbade3">
      <path class="uuid-3284d75f-3e52-4924-b32e-fe997dfd35e3" d="M345.08,347.64c-.72,10.8-1.41,21.6-2.81,32.34-.37,2.85-2.12,5.27-5.27,5.27-2.59,0-5.64-2.41-5.27-5.27,1.4-10.74,2.09-21.54,2.81-32.34.45-6.75,11-6.79,10.54,0h0Z"></path>
    </g>
    <g class="uuid-7c7b5613-8e4e-4207-8614-67ee2fcbade3">
      <path class="uuid-3284d75f-3e52-4924-b32e-fe997dfd35e3" d="M365.46,408.1c-.62,12.79.95,25.52-3,37.95-2.05,6.46-12.23,3.7-10.17-2.8,3.65-11.49,2.05-23.32,2.62-35.15.33-6.77,10.87-6.8,10.54,0h0Z"></path>
    </g>
    <g class="uuid-7c7b5613-8e4e-4207-8614-67ee2fcbade3">
      <path class="uuid-3284d75f-3e52-4924-b32e-fe997dfd35e3" d="M312.74,389.82c-.12,11.12-2.83,21.9-6.52,32.33-2.25,6.37-12.44,3.63-10.17-2.8,3.37-9.56,6.03-19.33,6.14-29.53.08-6.8,10.62-6.8,10.54,0h0Z"></path>
    </g>
    <g class="uuid-7c7b5613-8e4e-4207-8614-67ee2fcbade3">
      <path class="uuid-3284d75f-3e52-4924-b32e-fe997dfd35e3" d="M272.49,356.78c-2.05,10.45-3.3,21.02-4.03,31.64-.46,6.74-11.01,6.79-10.54,0,.8-11.55,2.17-23.08,4.41-34.44,1.31-6.67,11.47-3.84,10.17,2.8h0Z"></path>
    </g>
    <g class="uuid-7c7b5613-8e4e-4207-8614-67ee2fcbade3">
      <path class="uuid-3284d75f-3e52-4924-b32e-fe997dfd35e3" d="M242.26,406.69c-3.23,9.35-3.39,21.63,0,30.94,2.33,6.4-7.86,9.14-10.17,2.8-3.96-10.87-3.77-25.63,0-36.54,2.21-6.39,12.39-3.64,10.17,2.8h0Z"></path>
    </g>
    <g class="uuid-7c7b5613-8e4e-4207-8614-67ee2fcbade3">
      <path class="uuid-3284d75f-3e52-4924-b32e-fe997dfd35e3" d="M279,436.22c-.05,8.92-1.39,18.2,1.92,26.72,1.04,2.68-1.13,5.78-3.68,6.49-2.99.82-5.44-1.01-6.48-3.68-3.66-9.4-2.36-19.68-2.3-29.52.04-6.8,10.59-6.8,10.54,0h0Z"></path>
    </g>
    <g class="uuid-7c7b5613-8e4e-4207-8614-67ee2fcbade3">
      <path class="uuid-3284d75f-3e52-4924-b32e-fe997dfd35e3" d="M327.5,450.28c-.81,7.86-3.25,15.39-4.22,23.2-.35,2.85-2.13,5.27-5.27,5.27-2.61,0-5.63-2.41-5.27-5.27.97-7.81,3.41-15.37,4.22-23.2.29-2.86,2.18-5.27,5.27-5.27,2.65,0,5.57,2.41,5.27,5.27h0Z"></path>
    </g>
    <g class="uuid-7c7b5613-8e4e-4207-8614-67ee2fcbade3">
      <path class="uuid-3284d75f-3e52-4924-b32e-fe997dfd35e3" d="M367.57,467.15c0,5.78.34,11.88-.89,17.57-1.44,6.64-11.6,3.83-10.17-2.8.23-1.08.37-3.99.43-5.89.09-2.96.09-5.92.09-8.87,0-6.8,10.54-6.8,10.54,0h0Z"></path>
    </g>
    <g class="uuid-7c7b5613-8e4e-4207-8614-67ee2fcbade3">
      <path class="uuid-3284d75f-3e52-4924-b32e-fe997dfd35e3" d="M229.08,456.45c-3.25,5.47-4.55,11.73-6.5,17.72-2.09,6.44-12.28,3.68-10.17-2.8,2.23-6.87,3.83-13.97,7.56-20.24,3.47-5.84,12.59-.54,9.1,5.32h0Z"></path>
    </g>
    <g class="uuid-7c7b5613-8e4e-4207-8614-67ee2fcbade3">
      <path class="uuid-3284d75f-3e52-4924-b32e-fe997dfd35e3" d="M185.37,423.78c-.46.5.61-1.01-.11.28-.24.51-.24.47,0-.12-.19.45-.34.91-.5,1.37-.58,1.71-.95,3.48-1.31,5.24-.87,4.31-1.29,8.69-1.62,13.07-.34,4.62-.48,9.26-.37,13.89.09,3.54-.05,5.33,1.03,8.23,2.37,6.39-7.82,9.12-10.17,2.8-1.27-3.41-1.29-7.43-1.41-11.03-.16-5.17.08-10.36.49-15.52.41-5.2,1.05-10.43,2.14-15.54.75-3.56,1.83-7.39,4.35-10.13,4.61-5.02,12.05,2.46,7.46,7.46h0Z"></path>
    </g>
    <g class="uuid-7c7b5613-8e4e-4207-8614-67ee2fcbade3">
      <path class="uuid-3284d75f-3e52-4924-b32e-fe997dfd35e3" d="M159.31,464.33c-.65,3.97-1.17,7.93-1.22,11.95-.08,6.79-10.62,6.8-10.54,0,.06-4.95.79-9.88,1.59-14.76.47-2.84,3.94-4.38,6.49-3.68,2.99.82,4.15,3.65,3.68,6.49h0Z"></path>
    </g>
    <g class="uuid-7c7b5613-8e4e-4207-8614-67ee2fcbade3">
      <path class="uuid-3284d75f-3e52-4924-b32e-fe997dfd35e3" d="M181.86,375.27c-4.14,3.71-5.68,9.65-8.31,14.4-3.29,5.95-12.4.63-9.1-5.32,3.12-5.63,5.03-12.11,9.96-16.53,5.05-4.52,12.53,2.91,7.46,7.46h0Z"></path>
    </g>
    <g class="uuid-7c7b5613-8e4e-4207-8614-67ee2fcbade3">
      <path class="uuid-3284d75f-3e52-4924-b32e-fe997dfd35e3" d="M167.23,260.48c-.11,8.47-1.97,16.82-1.41,25.31.45,6.79-10.1,6.75-10.54,0-.56-8.48,1.3-16.84,1.41-25.31.09-6.79,10.63-6.8,10.54,0h0Z"></path>
    </g>
  </g>
  <path class="uuid-5bdf7ac3-0ce1-45fd-bff9-981061163371" d="M169.37,120.72c-4.88-.17-5.9,4.31-6.22,7.32-.26,2.5-.09,6.12,3.53,6.46,3.63.33,4.24-3.46,5.27-5.79,1.04-2.33,1.4-7.84-2.59-7.98Z"></path>
  <path class="uuid-5bdf7ac3-0ce1-45fd-bff9-981061163371" d="M221.66,101.94c3.63.33,4.24-3.46,5.27-5.79,1.04-2.33,1.4-7.84-2.59-7.98-4.88-.17-5.9,4.31-6.22,7.32-.26,2.5-.09,6.12,3.53,6.46Z"></path>
  <path class="uuid-5bdf7ac3-0ce1-45fd-bff9-981061163371" d="M285.27,88.66c-4.88-.17-5.9,4.31-6.22,7.32-.26,2.5-.09,6.12,3.53,6.46,3.63.33,4.24-3.46,5.27-5.79,1.04-2.33,1.4-7.84-2.59-7.98Z"></path>
  <path class="uuid-5bdf7ac3-0ce1-45fd-bff9-981061163371" d="M336.63,121.08c-4.88-.17-5.9,4.31-6.22,7.32-.26,2.5-.09,6.12,3.53,6.46,3.63.33,4.24-3.46,5.27-5.79,1.04-2.33,1.4-7.84-2.59-7.98Z"></path>
  <path class="uuid-5bdf7ac3-0ce1-45fd-bff9-981061163371" d="M233.19,170.82c-16.92,7.38-23.9,19.68-18.28,25.31,5.7,5.7,15.11-5.7,25.31-10.47,11.4-5.34,26.99-6.97,28.12-12.02,1.87-8.44-16.87-10.78-35.15-2.81Z"></path>
</svg>
