<?xml version="1.0" encoding="UTF-8"?>
<svg xmlns="http://www.w3.org/2000/svg" viewBox="0 0 512 606.23">
  <defs>
    <style>
      .uuid-43019cc4-5d94-48fc-9266-9d0b3e4f1397 {
        fill: #aba897;
      }

      .uuid-21084b40-6936-4993-ac14-0f181d40f7e5 {
        fill: #231f20;
      }

      .uuid-43a8b109-f3f6-444a-85ff-5fdf00c496e9 {
        fill: #00aeef;
      }

      .uuid-07ff8fbe-cebd-4a64-aba7-127867d7d5bd {
        fill: #fff;
      }

      .uuid-a413b47a-b34a-453a-90ad-75d2b2fc061b {
        opacity: .3;
      }

      .uuid-06cfc7b8-fbd6-4606-84f3-d9f7b3308933 {
        fill: #a7a9ac;
      }
    </style>
  </defs>
  <g id="uuid-8ee6c5ed-4abd-4938-bdc2-91ced7806056" data-name="Layer_2">
    <path class="uuid-43a8b109-f3f6-444a-85ff-5fdf00c496e9" d="M92.13,483.36c-.46.06-.96.37-1.22.6-.07.07-.16.16-.23.22-2.48,1.58-4.65,3.88-5.32,6.75-.63,2.67,1.42,5.09,2.99,7.02.15.19.71-.19,1.34-.8-.15.41-.19.77.04.93.66.46,2.1-1.6,2.35-1.94.15-.2.28-.42.43-.63.21.07.4.17.62.21,1.58.29,3.71-2.81,3.42-4.19-.32-1.49-.36-3.03-.74-4.51-.12-.47-.38-.88-.67-1.29-.36-1.03-.93-2-1.63-2.89-.2-.07-.39-.03-.56.1-.27.12-.55.27-.82.41Z"></path>
    <path class="uuid-43a8b109-f3f6-444a-85ff-5fdf00c496e9" d="M85.38,446.07c-.86,1.24-.93,2.64-.88,4.1.04,1.07.71,1.79,1.64,1.82.1.37.22.73.3,1.09.33,1.41,1.92,1.44,2.95.81,1.2-.75,2.07-2.29,1.74-3.72-.34-1.47-.71-3.68-1.75-4.83-1.21-1.36-3.07-.61-4.01.74Z"></path>
    <path class="uuid-43a8b109-f3f6-444a-85ff-5fdf00c496e9" d="M468.14,397.47c-.32.12-.66.25-1,.37-.14-.07-.25-.17-.4-.24-1.18-.5-2.66.09-3.71.61-1.84.92-3.81,2.33-4.14,4.47-.72,1.03-1.12,2.25-.94,3.74.2,1.87,1.22,2.1,2.43,2.14.99.9,2.51,1.36,3.76,1.38,1.43.02,2.64-.68,3.68-1.59.36-.31.67-.69,1-1.03.18-.18.37-.36.56-.53-.46.4.34-.1.03.03,1.34-.57,2.42-1.88,2.43-3.39.01-.62-.27-1.16-.68-1.5-.12-.32-.31-.61-.64-.83-.36-.25-.6-.46-.82-.7.11-.95-.13-1.93-.91-2.96-.23-.1-.45-.1-.66.02Z"></path>
    <path class="uuid-43a8b109-f3f6-444a-85ff-5fdf00c496e9" d="M414.89,506.1c-1.53,2.98-.22,7.11,2.08,9.19,1.27,1.14,2.57,1.54,3.78,1.41,3.23.8,4.83-1.68,5.16-4.59,1.62-3.78.96-8.81-3.41-10.15-3.24-.99-6.33,1.22-7.61,4.14Z"></path>
    <path class="uuid-43a8b109-f3f6-444a-85ff-5fdf00c496e9" d="M126.88,586.95c-4.82,3.02-5.37,9.6-1.85,14.69,4.46,6.44,11.4,5.43,15.83,1.15.2-.2.34-.45.44-.7,1.5-1.9,2.19-4.58,1.71-7.73-1.27-8.44-10.1-11.18-16.13-7.41Z"></path>
    <path class="uuid-43a8b109-f3f6-444a-85ff-5fdf00c496e9" d="M106.49,332.09c2.69,4.61,4.65,8.64,5.48,10.86,12.68,33.56,11.35,70.08,10.05,103.52-1.21,31.2-2.61,62.16-5.04,93.18-.64,8.22-2.85,24.36,7.69,30.61,10.04,5.96,21.14-7.94,20.85-14.56-.41-10.08-3.31-20.18-5.76-30.21-4.22-17.32-3.54-34.48-3.16-51.7.84-38.19-2.87-74,9.55-109.84,7.76-12.84,21.73-20.19,35.18-29.67"></path>
    <path class="uuid-43a8b109-f3f6-444a-85ff-5fdf00c496e9" d="M426.08,444.43c-1.25,7.97.62,16-.24,23.89,2.97,5.61,5.72,11.26,3.3,16.09-3.01,6-6.29,8.18-11.89,3.96-4.19-3.16-6-8.24-6.54-13.14-.5-4.54,2.73-9.55,4.52-13.92-1.41-3.59-2.91-7.18-4.45-10.73-5.62-3.05-13.97-4.7-17.28-6.36"></path>
  </g>
  <g id="uuid-60a3049f-d110-4334-a952-1cffcd574e0f" data-name="Layer_1">
    <circle class="uuid-43a8b109-f3f6-444a-85ff-5fdf00c496e9" cx="256" cy="256" r="256"></circle>
    <path class="uuid-07ff8fbe-cebd-4a64-aba7-127867d7d5bd" d="M344.72,103.88c-17.32-5.25-25.23,6.44-25.23,6.44,0,0-4.3-36.51-26.85-41.88-27.87-6.64-36.38,6.2-36.38,6.2,0,0-8.51-12.83-36.38-6.2-22.55,5.37-26.84,41.88-26.84,41.88,0,0-7.91-11.69-25.23-6.44-17.5,5.31-23.37,48.36-24.7,70.87-1.14,19.38-3.78,221.04-4.87,308.38,35.36,18.44,75.55,28.87,118.18,28.87s86.58-11.43,123.11-31.5c-2.76-88.67-8.97-286.56-10.1-305.75-1.33-22.51-7.2-65.56-24.7-70.87Z"></path>
    <path class="uuid-21084b40-6936-4993-ac14-0f181d40f7e5" d="M259.83,159.13c-35.86,0-68.88,27.36-50.01,46.24,18.87,18.87,30,2.02,50.95,2.02,19.82,0,30.2,12.14,47.18.81,16.99-11.32-7.55-49.07-48.12-49.07Z"></path>
    <path class="uuid-21084b40-6936-4993-ac14-0f181d40f7e5" d="M169.14,115.77c-10.08.77-12.62,10.08-11.36,19.53,1.26,9.45,7.57,15.75,14.51,15.12,6.94-.63,12.62-9.45,11.99-19.53-.63-10.08-6.94-15.75-15.14-15.12Z"></path>
    <path class="uuid-21084b40-6936-4993-ac14-0f181d40f7e5" d="M227.38,117.87c6.94-.63,12.62-9.45,11.99-19.53-.63-10.08-6.94-15.75-15.14-15.12-10.08.77-12.62,10.08-11.36,19.53,1.26,9.45,7.57,15.75,14.51,15.12Z"></path>
    <path class="uuid-21084b40-6936-4993-ac14-0f181d40f7e5" d="M288.34,117.87c6.94-.63,12.62-9.45,11.99-19.53-.63-10.08-6.94-15.75-15.14-15.12-10.08.77-12.62,10.08-11.36,19.53,1.26,9.45,7.57,15.75,14.51,15.12Z"></path>
    <path class="uuid-21084b40-6936-4993-ac14-0f181d40f7e5" d="M352.48,130.89c-.63-10.08-6.94-15.75-15.14-15.12-10.08.77-12.62,10.08-11.36,19.53s7.57,15.75,14.51,15.12c6.94-.63,12.62-9.45,11.99-19.53Z"></path>
    <g>
      <g class="uuid-a413b47a-b34a-453a-90ad-75d2b2fc061b">
        <path class="uuid-43019cc4-5d94-48fc-9266-9d0b3e4f1397" d="M359.14,235.17c.47,6.68.93,13.35,1.54,20.02.47,5.12.57,11,2.49,15.84,1.06,2.67-1.14,5.79-3.68,6.49-3,.83-5.43-1.01-6.48-3.68-2.15-5.41-2.23-12.01-2.78-17.73-.67-6.97-1.13-13.95-1.63-20.93-.48-6.79,10.07-6.74,10.54,0h0Z"></path>
      </g>
      <g class="uuid-a413b47a-b34a-453a-90ad-75d2b2fc061b">
        <path class="uuid-43019cc4-5d94-48fc-9266-9d0b3e4f1397" d="M337.35,263.99c-.86,6.45-1.74,12.9-2.41,19.37-.5,4.84-1.31,12.13-.59,15.78,1.31,6.64-8.85,9.47-10.17,2.8-1.14-5.76-.44-11.82.11-17.61.65-6.8,1.6-13.58,2.51-20.35.38-2.85,2.11-5.27,5.27-5.27,2.58,0,5.65,2.42,5.27,5.27h0Z"></path>
      </g>
      <g class="uuid-a413b47a-b34a-453a-90ad-75d2b2fc061b">
        <path class="uuid-43019cc4-5d94-48fc-9266-9d0b3e4f1397" d="M301.31,247.12c-.98,4.23-2.43,8.36-3.76,12.48-.71,2.19-1.41,4.39-2.06,6.6-.27.9-.51,1.81-.74,2.72-.09.37-.18.75-.25,1.13-.34,1.57.02-.93-.03.27-.29,6.77-10.83,6.8-10.54,0,.17-4.01,1.69-8,2.9-11.78,1.5-4.71,3.2-9.4,4.32-14.22,1.54-6.62,11.71-3.81,10.17,2.8h0Z"></path>
      </g>
      <g class="uuid-a413b47a-b34a-453a-90ad-75d2b2fc061b">
        <path class="uuid-43019cc4-5d94-48fc-9266-9d0b3e4f1397" d="M241.75,237.28c.61,14.56-1.34,29.04-1.41,43.58-.03,6.8-10.57,6.8-10.54,0,.06-14.55,2.01-29.03,1.41-43.58-.28-6.8,10.26-6.77,10.54,0h0Z"></path>
      </g>
      <g class="uuid-a413b47a-b34a-453a-90ad-75d2b2fc061b">
        <path class="uuid-43019cc4-5d94-48fc-9266-9d0b3e4f1397" d="M264.94,297.03c-.71,10.07.02,20.32-2.3,30.22-1.55,6.62-11.71,3.81-10.17-2.8,2.09-8.94,1.28-18.32,1.92-27.42.47-6.74,11.02-6.79,10.54,0h0Z"></path>
      </g>
      <g class="uuid-a413b47a-b34a-453a-90ad-75d2b2fc061b">
        <path class="uuid-43019cc4-5d94-48fc-9266-9d0b3e4f1397" d="M214.31,310.24c-2.71,6.37-3.32,13.71-2.79,20.54.53,6.78-10.02,6.73-10.54,0-.68-8.83.78-17.72,4.23-25.86,1.12-2.65,4.97-3.2,7.21-1.89,2.71,1.59,3.02,4.57,1.89,7.21h0Z"></path>
      </g>
      <g class="uuid-a413b47a-b34a-453a-90ad-75d2b2fc061b">
        <path class="uuid-43019cc4-5d94-48fc-9266-9d0b3e4f1397" d="M197.27,240.09c-1.59,8.99-8,16.76-8.25,26.01-.18,6.79-10.73,6.8-10.54,0,.28-10.47,6.84-18.76,8.62-28.82,1.19-6.69,11.35-3.84,10.17,2.8h0Z"></path>
      </g>
      <g class="uuid-a413b47a-b34a-453a-90ad-75d2b2fc061b">
        <path class="uuid-43019cc4-5d94-48fc-9266-9d0b3e4f1397" d="M168.45,323.04c-3.6,12.63-4.26,25.85-7.03,38.66-1.44,6.64-11.6,3.83-10.17-2.8,2.77-12.81,3.43-26.03,7.03-38.66,1.86-6.53,12.04-3.75,10.17,2.8h0Z"></path>
      </g>
      <g class="uuid-a413b47a-b34a-453a-90ad-75d2b2fc061b">
        <path class="uuid-43019cc4-5d94-48fc-9266-9d0b3e4f1397" d="M216.44,377.17c-.75,10.07-2.05,20.11-2.11,30.23-.04,6.8-10.59,6.8-10.54,0,.06-10.11,1.36-20.15,2.11-30.23.5-6.74,11.05-6.79,10.54,0h0Z"></path>
      </g>
      <g class="uuid-a413b47a-b34a-453a-90ad-75d2b2fc061b">
        <path class="uuid-43019cc4-5d94-48fc-9266-9d0b3e4f1397" d="M305.71,317.42c.69,8.9,1.37,17.79,1.41,26.71.03,6.8-10.52,6.8-10.54,0-.03-8.93-.72-17.82-1.41-26.71-.52-6.78,10.02-6.73,10.54,0h0Z"></path>
      </g>
      <g class="uuid-a413b47a-b34a-453a-90ad-75d2b2fc061b">
        <path class="uuid-43019cc4-5d94-48fc-9266-9d0b3e4f1397" d="M366.68,304.07c1.53,9.27,4.8,18.14,6.33,27.41,1.09,6.65-9.07,9.5-10.17,2.8-1.53-9.27-4.8-18.14-6.33-27.41-1.09-6.65,9.07-9.5,10.17-2.8h0Z"></path>
      </g>
      <g class="uuid-a413b47a-b34a-453a-90ad-75d2b2fc061b">
        <path class="uuid-43019cc4-5d94-48fc-9266-9d0b3e4f1397" d="M345.08,347.64c-.72,10.8-1.41,21.6-2.81,32.34-.37,2.85-2.12,5.27-5.27,5.27-2.59,0-5.64-2.41-5.27-5.27,1.4-10.74,2.09-21.54,2.81-32.34.45-6.75,11-6.79,10.54,0h0Z"></path>
      </g>
      <g class="uuid-a413b47a-b34a-453a-90ad-75d2b2fc061b">
        <path class="uuid-43019cc4-5d94-48fc-9266-9d0b3e4f1397" d="M365.46,408.1c-.62,12.79.95,25.52-3,37.95-2.05,6.46-12.23,3.7-10.17-2.8,3.65-11.49,2.05-23.32,2.62-35.15.33-6.77,10.87-6.8,10.54,0h0Z"></path>
      </g>
      <g class="uuid-a413b47a-b34a-453a-90ad-75d2b2fc061b">
        <path class="uuid-43019cc4-5d94-48fc-9266-9d0b3e4f1397" d="M312.74,389.82c-.12,11.12-2.83,21.9-6.52,32.33-2.25,6.37-12.44,3.63-10.17-2.8,3.37-9.56,6.03-19.33,6.14-29.53.08-6.8,10.62-6.8,10.54,0h0Z"></path>
      </g>
      <g class="uuid-a413b47a-b34a-453a-90ad-75d2b2fc061b">
        <path class="uuid-43019cc4-5d94-48fc-9266-9d0b3e4f1397" d="M272.49,356.78c-2.05,10.45-3.3,21.02-4.03,31.64-.46,6.74-11.01,6.79-10.54,0,.8-11.55,2.17-23.08,4.41-34.44,1.31-6.67,11.47-3.84,10.17,2.8h0Z"></path>
      </g>
      <g class="uuid-a413b47a-b34a-453a-90ad-75d2b2fc061b">
        <path class="uuid-43019cc4-5d94-48fc-9266-9d0b3e4f1397" d="M242.26,406.69c-3.23,9.35-3.39,21.63,0,30.94,2.33,6.4-7.86,9.14-10.17,2.8-3.96-10.87-3.77-25.63,0-36.54,2.21-6.39,12.39-3.64,10.17,2.8h0Z"></path>
      </g>
      <g class="uuid-a413b47a-b34a-453a-90ad-75d2b2fc061b">
        <path class="uuid-43019cc4-5d94-48fc-9266-9d0b3e4f1397" d="M279,436.22c-.05,8.92-1.39,18.2,1.92,26.72,1.04,2.68-1.13,5.78-3.68,6.49-2.99.82-5.44-1.01-6.48-3.68-3.66-9.4-2.36-19.68-2.3-29.52.04-6.8,10.59-6.8,10.54,0h0Z"></path>
      </g>
      <g class="uuid-a413b47a-b34a-453a-90ad-75d2b2fc061b">
        <path class="uuid-43019cc4-5d94-48fc-9266-9d0b3e4f1397" d="M327.5,450.28c-.81,7.86-3.25,15.39-4.22,23.2-.35,2.85-2.13,5.27-5.27,5.27-2.61,0-5.63-2.41-5.27-5.27.97-7.81,3.41-15.37,4.22-23.2.29-2.86,2.18-5.27,5.27-5.27,2.65,0,5.57,2.41,5.27,5.27h0Z"></path>
      </g>
      <g class="uuid-a413b47a-b34a-453a-90ad-75d2b2fc061b">
        <path class="uuid-43019cc4-5d94-48fc-9266-9d0b3e4f1397" d="M367.57,467.15c0,5.78.34,11.88-.89,17.57-1.44,6.64-11.6,3.83-10.17-2.8.23-1.08.37-3.99.43-5.89.09-2.96.09-5.92.09-8.87,0-6.8,10.54-6.8,10.54,0h0Z"></path>
      </g>
      <g class="uuid-a413b47a-b34a-453a-90ad-75d2b2fc061b">
        <path class="uuid-43019cc4-5d94-48fc-9266-9d0b3e4f1397" d="M229.08,456.45c-3.25,5.47-4.55,11.73-6.5,17.72-2.09,6.44-12.28,3.68-10.17-2.8,2.23-6.87,3.83-13.97,7.56-20.24,3.47-5.84,12.59-.54,9.1,5.32h0Z"></path>
      </g>
      <g class="uuid-a413b47a-b34a-453a-90ad-75d2b2fc061b">
        <path class="uuid-43019cc4-5d94-48fc-9266-9d0b3e4f1397" d="M185.37,423.78c-.46.5.61-1.01-.11.28-.24.51-.24.47,0-.12-.19.45-.34.91-.5,1.37-.58,1.71-.95,3.48-1.31,5.24-.87,4.31-1.29,8.69-1.62,13.07-.34,4.62-.48,9.26-.37,13.89.09,3.54-.05,5.33,1.03,8.23,2.37,6.39-7.82,9.12-10.17,2.8-1.27-3.41-1.29-7.43-1.41-11.03-.16-5.17.08-10.36.49-15.52.41-5.2,1.05-10.43,2.14-15.54.75-3.56,1.83-7.39,4.35-10.13,4.61-5.02,12.05,2.46,7.46,7.46h0Z"></path>
      </g>
      <g class="uuid-a413b47a-b34a-453a-90ad-75d2b2fc061b">
        <path class="uuid-43019cc4-5d94-48fc-9266-9d0b3e4f1397" d="M159.31,464.33c-.65,3.97-1.17,7.93-1.22,11.95-.08,6.79-10.62,6.8-10.54,0,.06-4.95.79-9.88,1.59-14.76.47-2.84,3.94-4.38,6.49-3.68,2.99.82,4.15,3.65,3.68,6.49h0Z"></path>
      </g>
      <g class="uuid-a413b47a-b34a-453a-90ad-75d2b2fc061b">
        <path class="uuid-43019cc4-5d94-48fc-9266-9d0b3e4f1397" d="M181.86,375.27c-4.14,3.71-5.68,9.65-8.31,14.4-3.29,5.95-12.4.63-9.1-5.32,3.12-5.63,5.03-12.11,9.96-16.53,5.05-4.52,12.53,2.91,7.46,7.46h0Z"></path>
      </g>
      <g class="uuid-a413b47a-b34a-453a-90ad-75d2b2fc061b">
        <path class="uuid-43019cc4-5d94-48fc-9266-9d0b3e4f1397" d="M167.23,260.48c-.11,8.47-1.97,16.82-1.41,25.31.45,6.79-10.1,6.75-10.54,0-.56-8.48,1.3-16.84,1.41-25.31.09-6.79,10.63-6.8,10.54,0h0Z"></path>
      </g>
    </g>
    <path class="uuid-06cfc7b8-fbd6-4606-84f3-d9f7b3308933" d="M169.37,120.72c-4.88-.17-5.9,4.31-6.22,7.32-.26,2.5-.09,6.12,3.53,6.46,3.63.33,4.24-3.46,5.27-5.79,1.04-2.33,1.4-7.84-2.59-7.98Z"></path>
    <path class="uuid-06cfc7b8-fbd6-4606-84f3-d9f7b3308933" d="M221.66,101.94c3.63.33,4.24-3.46,5.27-5.79,1.04-2.33,1.4-7.84-2.59-7.98-4.88-.17-5.9,4.31-6.22,7.32-.26,2.5-.09,6.12,3.53,6.46Z"></path>
    <path class="uuid-06cfc7b8-fbd6-4606-84f3-d9f7b3308933" d="M285.27,88.66c-4.88-.17-5.9,4.31-6.22,7.32-.26,2.5-.09,6.12,3.53,6.46,3.63.33,4.24-3.46,5.27-5.79,1.04-2.33,1.4-7.84-2.59-7.98Z"></path>
    <path class="uuid-06cfc7b8-fbd6-4606-84f3-d9f7b3308933" d="M336.63,121.08c-4.88-.17-5.9,4.31-6.22,7.32-.26,2.5-.09,6.12,3.53,6.46,3.63.33,4.24-3.46,5.27-5.79,1.04-2.33,1.4-7.84-2.59-7.98Z"></path>
    <path class="uuid-06cfc7b8-fbd6-4606-84f3-d9f7b3308933" d="M233.19,170.82c-16.92,7.38-23.9,19.68-18.28,25.31,5.7,5.7,15.11-5.7,25.31-10.47,11.4-5.34,26.99-6.97,28.12-12.02,1.87-8.44-16.87-10.78-35.15-2.81Z"></path>
  </g>
</svg>
