<?xml version="1.0" encoding="UTF-8"?>
<svg xmlns="http://www.w3.org/2000/svg" version="1.1" viewBox="0 0 48 48">
  <defs>
    <style>
      .cls-1 {
        fill: #fff;
      }

      .cls-1, .cls-2, .cls-3 {
        fill-rule: evenodd;
      }

      .cls-2 {
        fill: #b5b9ba;
      }

      .cls-3 {
        fill: #40c351;
      }
    </style>
  </defs>
  <g>
    <g id="Layer_1">
      <path class="cls-1" d="M4.9,43.3l2.7-9.8c-1.7-2.9-2.5-6.1-2.5-9.5,0-10.5,8.5-19,19-19,5.1,0,9.8,2,13.4,5.6,3.6,3.6,5.6,8.4,5.6,13.4,0,10.5-8.5,19-19,19s0,0,0,0h0c-3.2,0-6.3-.8-9.1-2.3l-10.1,2.6Z"></path>
      <path class="cls-1" d="M4.9,43.8c-.1,0-.3,0-.4-.1-.1-.1-.2-.3-.1-.5l2.6-9.6c-1.6-2.9-2.5-6.2-2.5-9.6,0-10.7,8.7-19.5,19.5-19.5,5.2,0,10.1,2,13.8,5.7,3.7,3.7,5.7,8.6,5.7,13.8,0,10.7-8.7,19.5-19.5,19.5-3.2,0-6.3-.8-9.1-2.3l-9.9,2.6s0,0-.1,0Z"></path>
      <path class="cls-2" d="M24,5c5.1,0,9.8,2,13.4,5.6,3.6,3.6,5.6,8.4,5.6,13.4,0,10.5-8.5,19-19,19h0c-3.2,0-6.3-.8-9.1-2.3l-10.1,2.6,2.7-9.8c-1.7-2.9-2.5-6.1-2.5-9.5,0-10.5,8.5-19,19-19M24,43h0M24,43h0M24,4h0C13,4,4,13,4,24c0,3.4.8,6.7,2.5,9.6l-2.6,9.4c0,.3,0,.7.3,1,.2.2.4.3.7.3s.2,0,.3,0l9.7-2.5c2.8,1.5,6,2.2,9.2,2.2,11,0,20-9,20-20,0-5.3-2.1-10.4-5.8-14.1-3.8-3.8-8.8-5.9-14.1-5.9h0Z"></path>
      <path class="cls-3" d="M35.2,12.8c-3-3-6.9-4.6-11.2-4.6-8.7,0-15.8,7.1-15.8,15.8,0,3,.8,5.9,2.4,8.4l.4.6-1.6,5.8,6-1.6.6.3c2.4,1.4,5.2,2.2,8,2.2h0c8.7,0,15.8-7.1,15.8-15.8,0-4.2-1.6-8.2-4.6-11.2Z"></path>
      <path class="cls-1" d="M19.3,16c-.4-.8-.7-.8-1.1-.8-.3,0-.6,0-.9,0s-.8.1-1.3.6c-.4.5-1.7,1.6-1.7,4s1.7,4.6,1.9,4.9,3.3,5.3,8.1,7.2c4,1.6,4.8,1.3,5.7,1.2.9,0,2.8-1.1,3.2-2.3.4-1.1.4-2.1.3-2.3-.1-.2-.4-.3-.9-.6s-2.8-1.4-3.2-1.5c-.4-.2-.8-.2-1.1.2-.3.5-1.2,1.5-1.5,1.9-.3.3-.6.4-1,.1-.5-.2-2-.7-3.8-2.4-1.4-1.3-2.4-2.8-2.6-3.3-.3-.5,0-.7.2-1,.2-.2.5-.6.7-.8.2-.3.3-.5.5-.8.2-.3,0-.6,0-.8-.1-.2-1-2.6-1.5-3.5Z"></path>
    </g>
  </g>
</svg>
